<svg xmlns="http://www.w3.org/2000/svg" xmlns:xlink="http://www.w3.org/1999/xlink" viewBox="0 0 286.75 144"><defs><style>.cls-1{fill:#0e592c;}.cls-2{fill:#02993f;}.cls-3{fill:url(#linear-gradient);}.cls-4{fill:#00f504;}.cls-5{fill:#fff;}.cls-6{fill:#01a048;}.cls-7{fill:#00984b;}.cls-8{fill:#231f20;}.cls-9{fill:#63bb46;}</style><linearGradient id="linear-gradient" x1="-1295.29" y1="-693.59" x2="-1295.16" y2="-693.59" gradientTransform="matrix(426, 0, 0, -426, 551909.72, -295421.17)" gradientUnits="userSpaceOnUse"><stop offset="0" stop-color="#01a048"/><stop offset="0.26" stop-color="#01a048"/><stop offset="1" stop-color="#00fa00"/></linearGradient></defs><title>new-milehybrid-logo-new</title><g id="Layer_2" data-name="Layer 2"><g id="Layer_1-2" data-name="Layer 1"><path class="cls-1" d="M140.7,69.47a3.42,3.42,0,0,1-.56-2.78.76.76,0,0,0,0-.15,3.92,3.92,0,0,0,0-.59v0a2.25,2.25,0,0,0-.08-.24.36.36,0,0,0,0-.09c-.46-.59-.16-.33,0,0a1.71,1.71,0,0,1,.11.14h0c-.09-.13-.16-.26-.25-.38a5.88,5.88,0,0,0-.55-.56c-1.21-1-2.47-1.89-3.66-2.87-6.31-5.25-9.69-13.42-6.53-20.75a23.4,23.4,0,0,1,4-6.09,36.76,36.76,0,0,1,4.05-4.14l.29-.23A9,9,0,0,1,135.53,28a3.14,3.14,0,0,1-.2-.83c-9.13,4-15.24,12.16-14.87,21.3.42,10.31,8.94,18.68,20.26,21Z"/><path class="cls-2" d="M135.47,44.87c0,.07,0,.14,0,.21s0-.11,0-.17C135.61,44.46,135.49,44.64,135.47,44.87Z"/><path class="cls-2" d="M166.89,45c-.73-12.08-7.53-16.07-13.51-17.2A21.54,21.54,0,0,0,146,26.36a22.31,22.31,0,0,0-2.6.12,3.75,3.75,0,0,1,.28.65l.19.31c.08.13.16.26.25.39h0v8a11.34,11.34,0,0,1-.94.89,31.37,31.37,0,0,0-3.33,3.58c-.06.08-.13.16-.19.25s-.28.37-.41.56-.43.62-.62,1-.44.77-.65,1.16v0c-.05.14-.11.27-.16.41a20.36,20.36,0,0,0-.55,2.14s0,.11-.05.18,0,.25,0,.38c0,.39,0,.79,0,1.19s0,.8,0,1.19c0,.16.05.32.08.48a15.59,15.59,0,0,0,.54,2.14c.07.24.16.47.24.7s.27.6.42.9a17.43,17.43,0,0,0,1.19,2l.06.08.33.41c.25.3.51.59.77.87.45.48.91.93,1.38,1.39a18.23,18.23,0,0,1,1.93,2.17V70.93s18.26-.85,22.13-17.28a21.3,21.3,0,0,0,.83-5.57A22.5,22.5,0,0,0,166.89,45Z"/><path class="cls-3" d="M151.94,28a20.27,20.27,0,0,1,12.41,18.72A20.37,20.37,0,0,1,150.08,66.1a20.39,20.39,0,0,1-6,.91,20.17,20.17,0,0,1-7.91-1.6,20.36,20.36,0,0,1-11.5-24.76A20.21,20.21,0,0,1,129,33,20.43,20.43,0,0,1,136.13,28L133,20.64a28.39,28.39,0,0,0-12.44,10.24A27.71,27.71,0,0,0,117,38.29a28.25,28.25,0,0,0,1,19.41,28.28,28.28,0,0,0,49.5,4.81A27.85,27.85,0,0,0,171,55.1a28.29,28.29,0,0,0-16-34.46L151.94,28Z"/><path class="cls-4" d="M144,64.82a44.44,44.44,0,0,0,6.38-5.19c6.8-6.66,14-18.46-6.38-27.6,0,0-25,8.6-7.47,26.51A57.36,57.36,0,0,0,144,64.82Z"/><path class="cls-5" d="M144,64.82l0,.05a44.81,44.81,0,0,0,6.39-5.19c3.45-3.39,7-8.11,7-13.15a11.27,11.27,0,0,0-2.94-7.43c-2.11-2.46-5.46-4.88-10.49-7.13h0a31,31,0,0,0-6.87,3.58,19.5,19.5,0,0,0-4.74,4.52,10.88,10.88,0,0,0-2.15,6.39c0,3.43,1.7,7.47,6.27,12.13A57.36,57.36,0,0,0,144,64.87l0,0,0,0,0-.05,0-.06a57.21,57.21,0,0,1-7.46-6.26c-4.55-4.65-6.23-8.66-6.23-12a10.79,10.79,0,0,1,2.13-6.32,22.09,22.09,0,0,1,7.21-6,32.9,32.9,0,0,1,3.07-1.5c.39-.17.71-.29.93-.37l.25-.1.08,0,0-.06,0,.06c5,2.25,8.36,4.65,10.44,7.1a11.08,11.08,0,0,1,2.92,7.34c0,5-3.55,9.67-7,13a45.71,45.71,0,0,1-4.4,3.78c-.6.45-1.09.8-1.44,1l-.39.27-.14.09,0,.06,0-.06Z"/><line class="cls-4" x1="144.01" y1="33.68" x2="131.24" y2="42.31"/><polyline class="cls-5" points="143.97 33.63 131.21 42.26 131.28 42.37 144.04 33.73"/><line class="cls-4" x1="144.07" y1="37.17" x2="157.41" y2="47.22"/><polyline class="cls-5" points="144.03 37.23 157.37 47.27 157.44 47.16 144.11 37.12"/><line class="cls-4" x1="144.07" y1="40.83" x2="131.02" y2="50.23"/><polyline class="cls-5" points="144.03 40.78 130.98 50.17 131.06 50.28 144.11 40.89"/><line class="cls-4" x1="144.07" y1="45.53" x2="155.01" y2="53.99"/><polyline class="cls-5" points="144.03 45.58 154.97 54.04 155.05 53.94 144.11 45.48"/><line class="cls-4" x1="144.07" y1="49.59" x2="134.43" y2="56.18"/><polyline class="cls-5" points="144.03 49.53 134.39 56.13 134.47 56.24 144.11 49.64"/><line class="cls-4" x1="144.07" y1="55.35" x2="150.06" y2="59.95"/><polyline class="cls-5" points="144.03 55.4 150.02 60 150.1 59.9 144.11 55.3"/><line class="cls-4" x1="143.95" y1="58.16" x2="139.63" y2="61.4"/><polyline class="cls-5" points="143.91 58.1 139.59 61.35 139.66 61.45 143.99 58.21"/><line class="cls-4" x1="144.01" y1="32.03" x2="144.01" y2="64.82"/><polyline class="cls-5" points="143.94 32.03 143.94 64.82 144.08 64.82 144.08 32.03"/><polygon class="cls-6" points="139.6 0 154.53 0 149.4 29.63 144.39 29.63 139.6 0"/><polygon class="cls-4" points="151.5 1.33 136.57 1.33 141.36 30.96 146.36 30.96 151.5 1.33"/><path class="cls-7" d="M5.05,95.82v3.36c2.06-2.91,4.19-4.11,7.32-4.11a8.85,8.85,0,0,1,8.1,5,9.38,9.38,0,0,1,8.74-5c6.4,0,9.67,4.11,9.67,12.12v19.68H33.83V108c0-5.68-1.63-8.08-5.4-8.08-4.34,0-6.47,3.22-6.47,9.73v17.21h-5V108.46c0-5.61-1.85-8.53-5.33-8.53-4.41,0-6.54,3.29-6.54,10v16.91H0V95.82Z"/><path class="cls-7" d="M54.51,84.07a3.63,3.63,0,1,1-3.62-3.81A3.74,3.74,0,0,1,54.51,84.07Zm-1.14,42.8h-5V95.82h5Z"/><rect class="cls-7" x="63.11" y="72.32" width="5.05" height="54.54"/><path class="cls-7" d="M81.23,112.43c.29,6.36,4,10.47,9.38,10.47,3.91,0,6.26-1.72,9.1-6.51l4.27,2.55c-3.27,6.06-7.61,8.83-13.65,8.83-8.53,0-14.43-6.74-14.43-16.47,0-9.5,6-16.16,14.36-16.16s14,6.51,14,16.24v1.05Zm17.7-4.49c-.93-4.87-4.34-8-8.67-8a9.06,9.06,0,0,0-8.67,8Z"/><path class="cls-8" d="M118.4,72.32V98c2.63-2.47,4.9-3.44,8-3.44a10.38,10.38,0,0,1,8.81,4.26c1.5,2.1,2,4.41,2,8.75v19.31h-6.9V108.24c0-4.94-1.63-7.19-5.19-7.19-5,0-6.75,2.62-6.75,10.63v15.19h-6.89V72.32Z"/><polygon class="cls-8" points="141 95.37 149.04 95.37 158.13 113.47 166.66 95.37 174.48 95.37 150.67 144 142.78 144 154.44 120.96 141 95.37"/><path class="cls-8" d="M186,99c2.92-3.22,5.62-4.49,9.31-4.49,8,0,14.15,7,14.15,16.38,0,9.8-6,16.91-14.22,16.91-3.62,0-6.32-1.27-9.24-4.27v3.3H179.1V72.32H186Zm-.42,12.12c0,6.06,3.48,10.17,8.53,10.17,4.83,0,8.31-4.26,8.31-10.17s-3.55-10.11-8.31-10.11C189.05,101.05,185.57,105.17,185.57,111.16Z"/><path class="cls-8" d="M223.66,95.37v2.84c2.56-2.84,4.19-3.74,6.89-3.74,2.14,0,3.42.45,5.76,2l-3.2,6.65c-1.56-1.19-2.41-1.57-3.84-1.57-3.83,0-5.61,2.85-5.61,9.06v16.31h-6.89V95.37Z"/><path class="cls-8" d="M249.24,82.28a4.52,4.52,0,1,1-9,0,4.52,4.52,0,1,1,9,0Zm-1.06,44.59h-6.9V95.37h6.9Z"/><path class="cls-8" d="M285.77,72.32v54.55h-6.89v-3.3c-2.92,3-5.62,4.27-9.24,4.27-8.25,0-14.22-7.11-14.22-16.91,0-9.35,6.11-16.38,14.15-16.38,3.69,0,6.39,1.27,9.31,4.49V72.32Zm-23.31,38.84c0,5.91,3.48,10.17,8.31,10.17,5.05,0,8.53-4.11,8.53-10.17s-3.48-10.11-8.53-10.11C265.94,101.05,262.46,105.32,262.46,111.16Z"/><path class="cls-7" d="M162.56,141.21l-.66,2.18h-1.45l2.47-7.7h1.79l2.51,7.7h-1.51l-.7-2.18Zm2.21-1.07-.61-1.89c-.15-.47-.27-1-.39-1.44h0c-.11.44-.23,1-.36,1.44l-.6,1.89Z"/><path class="cls-7" d="M176,135.69v4.49c0,1.51.63,2.2,1.57,2.2s1.63-.69,1.63-2.2v-4.49h1.4v4.4c0,2.37-1.22,3.43-3.07,3.43s-2.94-1-2.94-3.42v-4.41Z"/><polygon class="cls-7" points="190.29 136.86 188.1 136.86 188.1 135.69 193.91 135.69 193.91 136.86 191.7 136.86 191.7 143.39 190.29 143.39 190.29 136.86"/><path class="cls-7" d="M208,139.46c0,2.58-1.56,4.06-3.69,4.06s-3.54-1.66-3.54-3.92,1.48-4,3.65-4S208,137.26,208,139.46Zm-5.75.11c0,1.57.79,2.81,2.14,2.81s2.13-1.25,2.13-2.86-.72-2.83-2.13-2.83S202.22,138,202.22,139.57Z"/><path class="cls-7" d="M222.33,140.25c-.05-1-.11-2.2-.09-3.24h0c-.25.94-.57,2-.91,3l-1.12,3.34h-1.09l-1-3.29c-.3-1-.57-2-.78-3h0c0,1-.08,2.23-.14,3.28l-.17,3.1h-1.31l.51-7.7H218l1,3.09c.27.91.51,1.82.71,2.68h0c.21-.84.47-1.78.77-2.69l1.06-3.08h1.83l.45,7.7h-1.37Z"/><path class="cls-7" d="M238.75,139.46c0,2.58-1.56,4.06-3.69,4.06s-3.54-1.66-3.54-3.92,1.48-4,3.65-4S238.75,137.26,238.75,139.46Zm-5.75.11c0,1.57.79,2.81,2.14,2.81s2.13-1.25,2.13-2.86-.73-2.83-2.13-2.83S233,138,233,139.57Z"/><polygon class="cls-7" points="247.77 136.86 245.57 136.86 245.57 135.69 251.39 135.69 251.39 136.86 249.18 136.86 249.18 143.39 247.77 143.39 247.77 136.86"/><rect class="cls-7" x="258.93" y="135.69" width="1.41" height="7.7"/><path class="cls-7" d="M270.35,143.39l-2.49-7.7h1.53l1.05,3.49c.3,1,.55,1.88.76,2.82h0c.21-.92.48-1.86.79-2.79l1.12-3.52h1.5l-2.67,7.7Z"/><polygon class="cls-7" points="286.41 139.97 283.51 139.97 283.51 142.24 286.75 142.24 286.75 143.39 282.1 143.39 282.1 135.69 286.58 135.69 286.58 136.84 283.51 136.84 283.51 138.83 286.41 138.83 286.41 139.97"/><polyline class="cls-9" points="0.48 141.44 136.03 141.44 136.03 140.4 0.48 140.4"/></g></g></svg>